PathFileType	4	(X/Y/Z)	c:/Users/goper/Files/vsCode/490R/osim_files/A05/A05_Static01.trc
DataRate	CameraRate	NumFrames	NumMarkers	Units                	OrigDataRate	OrigDataStartFrame	OrigNumFrames
250.00	250.00	9	36	mm	250.0	876	3502
                Frame#	Time	LPSIS			LASIS			LTH1			LTH2			LTH3			LTH4			LLFE			LMFE			LSH1			LSH2			LSH3			LSH4			LLMAL			LMMAL			LCAL			LMTP5			LTOE			LMTP1			RPSIS			RASIS			RTH1			RTH2			RTH3			RTH4			RLFE			RMFE			RSH1			RSH2			RSH3			RSH4			RLMAL			RMMAL			RCAL			RMTP1			RTOE			RMTP5		
		X1	Y1	Z1	X2	Y2	Z2	X3	Y3	Z3	X4	Y4	Z4	X5	Y5	Z5	X6	Y6	Z6	X7	Y7	Z7	X8	Y8	Z8	X9	Y9	Z9	X10	Y10	Z10	X11	Y11	Z11	X12	Y12	Z12	X13	Y13	Z13	X14	Y14	Z14	X15	Y15	Z15	X16	Y16	Z16	X17	Y17	Z17	X18	Y18	Z18	X19	Y19	Z19	X20	Y20	Z20	X21	Y21	Z21	X22	Y22	Z22	X23	Y23	Z23	X24	Y24	Z24	X25	Y25	Z25	X26	Y26	Z26	X27	Y27	Z27	X28	Y28	Z28	X29	Y29	Z29	X30	Y30	Z30	X31	Y31	Z31	X32	Y32	Z32	X33	Y33	Z33	X34	Y34	Z34	X35	Y35	Z35	X36	Y36	Z36

876	3.50000	0.00000	0.00000	0.00000	343.21719	966.80890	266.26025	0.00000	0.00000	0.00000	231.76463	649.14575	238.90616	276.43137	701.67725	218.67128	281.40518	658.48895	221.20401	297.13345	480.58267	242.19507	303.99377	475.72055	341.22321	257.35312	387.50317	233.57405	251.19316	341.58374	231.62245	315.69266	376.17172	242.19643	303.49963	332.58533	237.10184	255.69188	117.03543	233.03354	261.16757	119.28663	322.86060	174.42670	66.55351	290.16455	380.53711	49.56657	200.22528	434.96460	70.82873	259.09454	395.79514	63.62435	308.88803	174.39711	995.94440	483.99799	363.29208	975.97717	581.15460	325.15100	627.23578	620.79242	336.69540	587.58643	612.09216	384.43256	641.50159	603.98413	386.96387	594.66760	594.91284	310.81763	515.81854	599.55707	340.02225	501.10120	462.94702	221.29774	269.53665	579.27551	212.76442	225.03584	568.78125	280.50491	252.58601	579.86096	261.03931	207.91272	572.23541	198.81079	111.37337	544.20789	251.05611	134.63719	461.55557	152.73410	70.02908	452.67242	363.59958	59.12856	490.99573	384.17166	65.87141	550.02167	308.30179	43.15345	597.76874
877	3.50400	0.00000	0.00000	0.00000	343.23410	966.77417	266.27765	0.00000	0.00000	0.00000	231.80185	649.17352	238.89380	276.47681	701.66632	218.63687	281.42691	658.49841	221.20929	297.13821	480.58688	242.21031	302.66202	475.12943	341.36295	257.32898	387.50269	233.60612	251.20660	341.57446	231.66293	315.73685	376.17154	242.21062	303.50568	332.59171	237.11739	255.66542	117.02233	233.04561	261.19061	119.32040	322.83432	174.42000	66.63309	290.02335	380.52042	49.56658	200.22955	434.98767	70.83805	259.09122	395.81680	63.64634	308.88922	174.47601	995.93616	484.00565	363.31259	975.98608	581.14557	325.19214	627.27179	620.78998	336.72855	587.63977	612.10480	384.45847	641.53809	603.99176	386.99411	594.69238	594.92596	310.82205	515.83325	599.53052	340.03030	501.11584	462.95251	221.35262	269.58469	579.24323	212.83134	225.08591	568.79932	280.55075	252.58556	579.85284	261.10770	207.96146	572.25092	198.80443	111.37962	544.16150	251.06573	134.62482	461.53952	152.78506	70.09531	452.63055	363.62375	59.15330	491.00150	384.19803	65.87270	550.01965	308.29343	43.17677	597.75043
878	3.50800	0.00000	0.00000	0.00000	343.27155	966.79010	266.29544	0.00000	0.00000	0.00000	231.81567	649.17535	238.89615	276.48175	701.67450	218.66814	281.43344	658.48456	221.23045	297.15506	480.61426	242.19513	302.67450	475.11548	341.38577	257.37103	387.52704	233.58566	251.25223	341.61227	231.62918	315.71924	376.15286	242.20660	303.53531	332.57260	237.11200	255.71104	117.06959	233.01152	261.24268	119.34767	322.82059	174.46617	66.74726	289.94223	380.55472	49.58363	200.24049	434.97424	70.85894	259.07422	395.81949	63.66459	308.88159	174.48505	995.93549	483.94519	363.33780	976.01691	581.14520	325.21579	627.29608	620.77429	336.78891	587.65912	612.09058	384.49429	641.54181	603.97888	387.00769	594.70685	594.91870	310.86838	515.86981	599.53650	340.05969	501.10516	462.96265	220.73981	269.08234	578.82391	212.83717	225.09776	568.74792	280.75500	252.88950	579.55200	261.12970	207.99289	572.23352	198.82664	111.40894	544.14819	251.08661	134.64250	461.54324	152.79533	70.09841	452.61771	363.65427	59.16183	490.98206	384.24005	65.92060	550.00110	308.33258	43.22000	597.74506
879	3.51200	0.00000	0.00000	0.00000	343.29236	966.81940	266.30917	0.00000	0.00000	0.00000	231.81123	649.17792	238.91681	276.51205	701.68958	218.65459	281.43832	658.50989	221.24113	297.19092	480.61041	242.19901	303.88855	476.09097	340.84415	257.36856	387.52063	233.61470	251.23785	341.59268	231.64969	315.73779	376.14764	242.22902	303.52853	332.58789	237.12851	255.68387	117.05418	233.06078	261.23007	119.38884	322.80212	174.45168	66.80275	289.91699	380.54962	49.57253	200.23146	435.00128	70.89460	259.06674	395.81635	63.65711	308.88223	174.50970	995.93732	483.98022	363.31900	976.02802	581.14288	325.19666	627.31622	620.76434	336.75522	587.66711	612.09528	384.48355	641.57306	604.01154	387.01773	594.73267	594.93524	310.85974	515.90381	599.55481	340.07016	501.09528	462.97110	220.65926	269.06351	578.75037	212.72488	225.07475	568.65765	280.76566	252.91548	579.54919	261.14496	208.02991	572.21375	198.84418	111.42954	544.12225	251.08870	134.64142	461.54623	152.76570	70.10355	452.64484	363.65149	59.16291	490.97632	384.22522	65.92893	549.98029	308.33868	43.24680	597.75226
880	3.51600	0.00000	0.00000	0.00000	343.33572	966.81458	266.33450	0.00000	0.00000	0.00000	231.86406	649.21338	238.88792	276.55389	701.70276	218.65268	281.46274	658.50372	221.25148	297.17273	480.60486	242.23378	303.47629	475.12369	341.76334	257.37192	387.52829	233.61317	251.24397	341.60287	231.65500	315.76236	376.15295	242.23567	303.54218	332.57324	237.11783	255.66150	117.03144	233.06677	261.20700	119.36152	322.79572	174.44337	66.78461	289.94659	380.55362	49.58359	200.24074	434.96930	70.87764	259.05362	395.81717	63.69004	308.86963	174.50523	995.93982	483.94870	363.33624	976.06952	581.13824	325.20798	627.33264	620.77295	336.74738	587.67261	612.09406	384.49680	641.58270	604.00818	387.03745	594.77722	594.90863	310.84393	515.89966	599.52856	340.08984	501.10068	462.98193	220.67485	269.07315	578.70795	212.68474	225.06601	568.58655	280.59531	252.64746	579.83124	261.11188	208.02628	572.20514	198.84023	111.45667	544.10040	251.12650	134.63185	461.51709	152.76875	70.12009	452.59634	363.65872	59.17232	490.96979	384.21179	65.90986	549.99438	308.44095	43.21659	597.77142
881	3.52000	0.00000	0.00000	0.00000	343.32288	966.81311	266.35953	0.00000	0.00000	0.00000	231.86172	649.21552	238.92529	276.56979	701.70673	218.64569	281.46045	658.49658	221.26407	297.19455	480.62668	242.19759	303.46848	475.10739	341.76337	257.40784	387.55566	233.61057	251.27061	341.63538	231.64180	315.77866	376.16623	242.25229	303.57883	332.59558	237.11557	255.71463	117.09558	233.02058	261.18747	119.35136	322.82373	174.44952	66.73795	289.96930	380.56232	49.58509	200.21938	434.96481	70.88421	259.08249	395.79321	63.65685	308.88550	174.50351	995.93579	483.93457	363.31091	976.03601	581.16071	325.19141	627.30798	620.78241	336.71725	587.64630	612.09412	384.49823	641.56714	604.01550	387.02087	594.72998	594.93988	310.82587	515.87268	599.53363	340.11121	501.10199	462.98978	221.22231	269.52850	579.03815	212.70062	225.03905	568.59802	280.60944	252.64757	579.84338	261.13522	208.03146	572.22797	198.82996	111.42464	544.06830	251.11186	134.64474	461.52136	152.81380	70.14602	452.58609	363.63181	59.14868	490.98065	384.21301	65.88978	549.99548	308.41327	43.20192	597.77417
882	3.52400	0.00000	0.00000	0.00000	343.38074	966.83801	266.36002	0.00000	0.00000	0.00000	231.87595	649.21881	238.93146	276.56290	701.70258	218.69594	281.46118	658.48358	221.28050	297.21451	480.59863	242.23064	302.66144	475.07050	341.41928	257.36716	387.53680	233.63237	251.26241	341.62402	231.67549	315.80109	376.18307	242.24886	303.56430	332.60001	237.12245	255.69568	117.06788	233.04306	261.17020	119.32059	322.82199	174.44919	66.74657	289.99768	380.54327	49.57523	200.23459	434.94128	70.85067	259.09402	395.81363	63.65368	308.88809	174.56844	995.88232	483.89240	363.30240	976.01422	581.18738	325.21106	627.28979	620.79688	336.74210	587.65027	612.11237	384.49084	641.54468	604.04388	387.01764	594.70667	594.95490	310.88818	515.87201	599.57245	340.16022	501.12662	462.98013	220.74525	269.04166	578.75397	212.77516	225.02298	568.65881	280.62753	252.64055	579.83905	261.17126	208.01198	572.24677	198.85875	111.40189	544.11029	251.14030	134.66348	461.53027	152.80067	70.11918	452.61063	363.62552	59.12633	490.99908	384.18094	65.82916	550.01813	307.10950	42.16076	598.09180
883	3.52800	0.00000	0.00000	0.00000	343.39246	966.82367	266.39243	0.00000	0.00000	0.00000	231.87506	649.19061	238.95424	276.61670	701.70587	218.68105	281.50595	658.50366	221.28757	297.22992	480.61533	242.24501	302.69928	475.08740	341.39771	257.39197	387.53671	233.66127	251.27296	341.60751	231.69608	315.80301	376.14819	242.26263	303.58789	332.60498	237.14461	255.69713	117.07587	233.06223	261.15503	119.27558	322.85587	174.45403	66.78024	289.96939	380.54803	49.57586	200.23459	434.95334	70.79796	259.12061	395.77524	63.61500	308.91107	174.60420	995.85767	483.96002	363.31390	976.00623	581.21478	325.19922	627.24628	620.82556	336.78589	587.63434	612.15845	384.49890	641.53046	604.06573	387.03055	594.69482	594.96362	310.86774	515.82391	599.58893	340.16064	501.12317	462.99118	220.75439	269.00644	578.79797	212.74722	224.95126	568.67236	280.80682	252.87305	579.57794	261.17133	207.97066	572.26154	198.88036	111.37233	544.17365	251.14198	134.64462	461.52890	152.81058	70.13235	452.62881	363.60580	59.07718	491.03757	384.19592	65.80844	550.06287	308.35754	43.11618	597.79712
884	3.53200	0.00000	0.00000	0.00000	343.41284	966.81451	266.41815	0.00000	0.00000	0.00000	231.91376	649.21161	238.94586	276.63647	701.70624	218.67934	281.51151	658.49042	221.31805	297.25049	480.61240	242.23758	302.65765	475.05533	341.42044	257.41129	387.55890	233.65387	251.32176	341.64133	231.65619	315.80978	376.15033	242.29286	303.59180	332.59796	237.14226	255.72409	117.08366	233.03746	261.14398	119.24480	322.87579	174.44981	66.73866	290.05557	380.54889	49.56599	200.24162	434.92340	70.77295	259.15555	395.76886	63.59421	308.94705	174.65169	995.82538	483.93457	363.33176	975.98840	581.23834	325.21872	627.24121	620.85193	336.75781	587.59363	612.14941	384.49762	641.51550	604.07831	387.01926	594.67834	595.01135	310.87360	515.79541	599.61987	340.17859	501.13846	462.99484	220.76042	268.99945	578.82452	212.74930	224.91769	568.69989	280.64206	252.58380	579.89117	261.16071	207.95636	572.30255	198.92946	111.36996	544.22339	251.16473	134.66850	461.54340	152.80698	70.11376	452.66339	363.61392	59.05181	491.05127	384.20502	65.79212	550.06323	308.27151	43.14819	597.80902
